<mxfile host="Electron" agent="Mozilla/5.0 (Windows NT 10.0; Win64; x64) AppleWebKit/537.36 (KHTML, like Gecko) draw.io/26.2.15 Chrome/134.0.6998.205 Electron/35.2.1 Safari/537.36" version="26.2.15">
  <diagram name="Page-1" id="UzwJVtlnHylNfN2I3hFB">
    <mxGraphModel dx="1209" dy="806" grid="1" gridSize="10" guides="1" tooltips="1" connect="1" arrows="1" fold="1" page="1" pageScale="1" pageWidth="850" pageHeight="1100" math="0" shadow="0">
      <root>
        <mxCell id="0" />
        <mxCell id="1" parent="0" />
        <mxCell id="-9luqcbgYS3kHUFNUeeg-17" style="edgeStyle=orthogonalEdgeStyle;rounded=0;orthogonalLoop=1;jettySize=auto;html=1;exitX=0.5;exitY=1;exitDx=0;exitDy=0;entryX=0.5;entryY=0;entryDx=0;entryDy=0;" edge="1" parent="1" source="-9luqcbgYS3kHUFNUeeg-1" target="-9luqcbgYS3kHUFNUeeg-16">
          <mxGeometry relative="1" as="geometry" />
        </mxCell>
        <mxCell id="-9luqcbgYS3kHUFNUeeg-1" value="MAIN_TollAlgorithm" style="rounded=1;whiteSpace=wrap;html=1;" vertex="1" parent="1">
          <mxGeometry x="330" y="130" width="140" height="40" as="geometry" />
        </mxCell>
        <mxCell id="-9luqcbgYS3kHUFNUeeg-2" value="" style="endArrow=classic;html=1;rounded=0;entryX=0.5;entryY=0;entryDx=0;entryDy=0;dashed=1;startArrow=ERmandOne;startFill=0;strokeWidth=2;" edge="1" parent="1" target="-9luqcbgYS3kHUFNUeeg-1">
          <mxGeometry width="50" height="50" relative="1" as="geometry">
            <mxPoint x="400" y="70" as="sourcePoint" />
            <mxPoint x="430" y="40" as="targetPoint" />
          </mxGeometry>
        </mxCell>
        <mxCell id="-9luqcbgYS3kHUFNUeeg-10" style="edgeStyle=orthogonalEdgeStyle;rounded=0;orthogonalLoop=1;jettySize=auto;html=1;exitX=0.5;exitY=1;exitDx=0;exitDy=0;entryX=0.5;entryY=0;entryDx=0;entryDy=0;" edge="1" parent="1" source="-9luqcbgYS3kHUFNUeeg-3" target="-9luqcbgYS3kHUFNUeeg-4">
          <mxGeometry relative="1" as="geometry" />
        </mxCell>
        <mxCell id="-9luqcbgYS3kHUFNUeeg-3" value="INPUT_KENDARAAN" style="shape=process;whiteSpace=wrap;html=1;backgroundOutline=1;" vertex="1" parent="1">
          <mxGeometry x="315" y="327" width="170" height="60" as="geometry" />
        </mxCell>
        <mxCell id="-9luqcbgYS3kHUFNUeeg-11" style="edgeStyle=orthogonalEdgeStyle;rounded=0;orthogonalLoop=1;jettySize=auto;html=1;exitX=0.5;exitY=1;exitDx=0;exitDy=0;entryX=0.5;entryY=0;entryDx=0;entryDy=0;" edge="1" parent="1" source="-9luqcbgYS3kHUFNUeeg-4" target="-9luqcbgYS3kHUFNUeeg-5">
          <mxGeometry relative="1" as="geometry" />
        </mxCell>
        <mxCell id="-9luqcbgYS3kHUFNUeeg-4" value="PINTU_TOL" style="shape=process;whiteSpace=wrap;html=1;backgroundOutline=1;" vertex="1" parent="1">
          <mxGeometry x="340" y="431" width="120" height="60" as="geometry" />
        </mxCell>
        <mxCell id="-9luqcbgYS3kHUFNUeeg-12" style="edgeStyle=orthogonalEdgeStyle;rounded=0;orthogonalLoop=1;jettySize=auto;html=1;exitX=0.5;exitY=1;exitDx=0;exitDy=0;entryX=0.5;entryY=0;entryDx=0;entryDy=0;" edge="1" parent="1" source="-9luqcbgYS3kHUFNUeeg-5" target="-9luqcbgYS3kHUFNUeeg-6">
          <mxGeometry relative="1" as="geometry" />
        </mxCell>
        <mxCell id="-9luqcbgYS3kHUFNUeeg-5" value="E_MONEY" style="shape=process;whiteSpace=wrap;html=1;backgroundOutline=1;" vertex="1" parent="1">
          <mxGeometry x="340" y="534" width="120" height="60" as="geometry" />
        </mxCell>
        <mxCell id="-9luqcbgYS3kHUFNUeeg-13" style="edgeStyle=orthogonalEdgeStyle;rounded=0;orthogonalLoop=1;jettySize=auto;html=1;exitX=0.5;exitY=1;exitDx=0;exitDy=0;entryX=0.5;entryY=0;entryDx=0;entryDy=0;" edge="1" parent="1" source="-9luqcbgYS3kHUFNUeeg-6" target="-9luqcbgYS3kHUFNUeeg-7">
          <mxGeometry relative="1" as="geometry" />
        </mxCell>
        <mxCell id="-9luqcbgYS3kHUFNUeeg-6" value="RUTE_PEMBAYARAN" style="shape=process;whiteSpace=wrap;html=1;backgroundOutline=1;" vertex="1" parent="1">
          <mxGeometry x="300" y="638" width="200" height="60" as="geometry" />
        </mxCell>
        <mxCell id="-9luqcbgYS3kHUFNUeeg-14" style="edgeStyle=orthogonalEdgeStyle;rounded=0;orthogonalLoop=1;jettySize=auto;html=1;exitX=0.5;exitY=1;exitDx=0;exitDy=0;entryX=0.5;entryY=0;entryDx=0;entryDy=0;" edge="1" parent="1" source="-9luqcbgYS3kHUFNUeeg-7" target="-9luqcbgYS3kHUFNUeeg-8">
          <mxGeometry relative="1" as="geometry" />
        </mxCell>
        <mxCell id="-9luqcbgYS3kHUFNUeeg-7" value="BUKA PINTU&amp;nbsp;&lt;div&gt;&amp;amp; POST PROCESSING&lt;/div&gt;" style="shape=process;whiteSpace=wrap;html=1;backgroundOutline=1;" vertex="1" parent="1">
          <mxGeometry x="310" y="741" width="180" height="60" as="geometry" />
        </mxCell>
        <mxCell id="-9luqcbgYS3kHUFNUeeg-15" style="edgeStyle=orthogonalEdgeStyle;rounded=0;orthogonalLoop=1;jettySize=auto;html=1;exitX=0.5;exitY=1;exitDx=0;exitDy=0;endArrow=doubleBlock;endFill=1;dashed=1;strokeWidth=2;" edge="1" parent="1" source="-9luqcbgYS3kHUFNUeeg-8">
          <mxGeometry relative="1" as="geometry">
            <mxPoint x="400" y="980" as="targetPoint" />
          </mxGeometry>
        </mxCell>
        <mxCell id="-9luqcbgYS3kHUFNUeeg-8" value="deteksiKendaraan&amp;nbsp;← False" style="rounded=0;whiteSpace=wrap;html=1;" vertex="1" parent="1">
          <mxGeometry x="315" y="850" width="170" height="50" as="geometry" />
        </mxCell>
        <mxCell id="-9luqcbgYS3kHUFNUeeg-18" style="edgeStyle=orthogonalEdgeStyle;rounded=0;orthogonalLoop=1;jettySize=auto;html=1;exitX=0.5;exitY=1;exitDx=0;exitDy=0;entryX=0.5;entryY=0;entryDx=0;entryDy=0;" edge="1" parent="1" source="-9luqcbgYS3kHUFNUeeg-16" target="-9luqcbgYS3kHUFNUeeg-3">
          <mxGeometry relative="1" as="geometry" />
        </mxCell>
        <mxCell id="-9luqcbgYS3kHUFNUeeg-16" value="status&amp;nbsp;← STATUS_INVALID" style="rounded=0;whiteSpace=wrap;html=1;" vertex="1" parent="1">
          <mxGeometry x="300" y="229" width="200" height="50" as="geometry" />
        </mxCell>
      </root>
    </mxGraphModel>
  </diagram>
</mxfile>
